<svg id="Layer_1" data-name="Layer 1" xmlns="http://www.w3.org/2000/svg" viewBox="0 0 275.06 274.95"><path d="M278.47,116.58A136.56,136.56,0,0,0,239.21,47.1,137,137,0,0,0,132.89,9.48c-3.29.27-4,1.18-3.93,4.47.31,11.34-4.44,20-14.27,25.57a26,26,0,0,1-18.9,2.68c-2.46-.52-4.45,1.18-4,3.53a7,7,0,0,0,1,2.22,26.36,26.36,0,0,1,3.24,19.93A27.21,27.21,0,0,1,53.81,84.34a3.41,3.41,0,0,0-4-.34c-1.24.77-1.6,2.12-1.14,4a27.31,27.31,0,0,1-35.21,32.69c-2.72-.9-4.41.12-4.82,3s-.83,5.89-1.15,8.84a133.42,133.42,0,0,0,2,41.34c5.86,28.4,19.11,52.87,40.4,72.55,33.7,31.16,73.6,42.93,118.8,35.36,29.68-5,54.93-19,75.53-40.89,24.86-26.46,37.08-58.1,37.58-94.33A145.48,145.48,0,0,0,278.47,116.58Zm-51.7-13.25c4.84-2.68,9.69-5.36,14.56-8,2.35-1.26,4.81.25,4.74,2.52a3.06,3.06,0,0,1-1.63,3c-4.89,2.7-9.77,5.41-14.68,8.07a3.16,3.16,0,1,1-3-5.55ZM191.86,63.09c.75-1.7,2.57-2.28,4.53-1.4,3.94,1.77,7.87,3.54,11.78,5.35A3.12,3.12,0,0,1,210,70.68a3.22,3.22,0,0,1-3.4,2.38,9.66,9.66,0,0,1-1.4-.44q-5.72-2.57-11.42-5.18C191.86,66.54,191.1,64.81,191.86,63.09Zm-5.25,39.64a3.15,3.15,0,0,1,4.4-1.49q6,2.67,11.9,5.41a3.14,3.14,0,0,1,1.89,3.63,3.22,3.22,0,0,1-3.39,2.4,8.53,8.53,0,0,1-1.4-.44q-5.77-2.59-11.54-5.23A3.17,3.17,0,0,1,186.61,102.73ZM169.52,72.28a3.17,3.17,0,0,1,2.8,3.34c0,.19-.1.62-.21,1q-1.74,6.5-3.49,13a3.2,3.2,0,0,1-4.05,2.51,3.17,3.17,0,0,1-2-4.08q1.74-6.63,3.54-13.24A3.19,3.19,0,0,1,169.52,72.28ZM151.85,49.74q3.3-6,6.65-12a3.12,3.12,0,0,1,3.65-1.61,3.29,3.29,0,0,1,2.28,3.4,8.73,8.73,0,0,1-.55,1.47q-3.23,5.91-6.51,11.8c-1,1.85-2.86,2.46-4.51,1.53S150.84,51.58,151.85,49.74Zm-37.63,28a3,3,0,0,1,3.83-1.6c4.27,1.86,8.51,3.8,12.74,5.76a2.72,2.72,0,0,1,1.65,2.37c0,2.58-2.15,4.18-4.19,3.31-4.29-1.83-8.51-3.79-12.73-5.78A3,3,0,0,1,114.22,77.73Zm30.3,29.66a39.1,39.1,0,1,1-39.4,38.84C105.14,124.78,122.79,107.38,144.52,107.39Zm-60.83,9.53c1.2-4.72,2.49-9.42,3.82-14.11a3.12,3.12,0,0,1,6,1.56c-1.2,4.72-2.5,9.42-3.82,14.11a2.92,2.92,0,0,1-3,2.13A3,3,0,0,1,83.69,116.92ZM51.35,137q7.36-4.12,14.79-8.13a3.14,3.14,0,0,1,3.06,5.48q-7.38,4.09-14.79,8.13a3.13,3.13,0,0,1-4.31-1.2A3.08,3.08,0,0,1,51.35,137Zm158.4,123c-43.15,25.43-97.76,23.26-139.16-5A130.8,130.8,0,0,1,13.45,136.7c1.32.25,2.64.43,3.92.74,5.91,1.42,10.48,5,14.81,9a137.68,137.68,0,0,0,11.48,10.15c11.67,8.64,30.66,8.72,43.12-2.39,3.68-3.28,7.24-6.71,10.86-10.07.31-.29.66-.54,1.22-1,0,.69,0,1.14,0,1.59a45.39,45.39,0,0,0,88.66,15.36,3.63,3.63,0,0,1,1.74-2.28c4.56-2.68,8.25-6.44,12-10.1,3.14-3.06,6.28-6.18,10.29-8,11.16-5.19,21.85-4.38,31.59,3.36,4.06,3.23,7.63,7.06,11.51,10.53a34.33,34.33,0,0,0,16.57,8.52c1,.19,2.06.34,3.42.56C268.08,205.29,246.93,238.17,209.75,260.07Z" transform="translate(-6.7 -9)" fill="#fff"/><path d="M54.1,213.27A13.44,13.44,0,0,1,44.4,215,11.27,11.27,0,0,1,37,209l-8.77-15.76,52.4-29.18,8,14.18A13.84,13.84,0,0,1,83.24,197l-6.6,3.68A11.87,11.87,0,0,1,71.25,202,8.24,8.24,0,0,1,66,200.87a8.31,8.31,0,0,1-1.47,4.93,10.64,10.64,0,0,1-3.79,3.79ZM51.77,204l3.14-1.74q5.94-3.31,4.37-6.15l-4.11-7.37-15.75,8.77,2.85,5.31c1.11,2,2.55,3,4.31,3A12.05,12.05,0,0,0,51.77,204Zm26.31-28L61.76,185.1q2.09,3.93,2.18,4.09c1.38,2.48,2.88,3.85,4.49,4.08q2,.38,5.88-1.79L76.9,190q3.94-2.21,4.7-3.9" transform="translate(-6.7 -9)" fill="#fff"/><path d="M86.29,256,78,251.21l29.67-51.92,8.26,4.82Z" transform="translate(-6.7 -9)" fill="#fff"/><path d="M158.21,217.54l-9.29.07.38,52.16-9.56.07-.39-52.16-9.2.06-.15-7.63,28.06-.21Z" transform="translate(-6.7 -9)" fill="#fff"/><path d="M221.19,232l4.95,7-22.72,16.14-34.58-48.68,22.68-16.21,4.95,7-14.92,10.6,9.32,13.13,14.93-10.6,4.95,7-14.93,10.6,10.44,14.71Z" transform="translate(-6.7 -9)" fill="#fff"/><path d="M264.2,174.82l-9.44,26.43-7.4-2.65-35.43-32.51-6.29,17.6-7.19-2.57,9.44-26.43,7.19,2.57,35.65,32.58L257,172.25Z" transform="translate(-6.7 -9)" fill="#fff"/></svg>